<svg xmlns="http://www.w3.org/2000/svg" width="2230.29" height="1631.52" viewBox="0 0 2230.29 1631.52">
  <defs>
    <style>
      .cls-1 {
        fill: #0ee2ac;
      }
    </style>
  </defs>
  <g id="Layer_2" data-name="Layer 2">
    <g id="Layer_3" data-name="Layer 3">
      <path class="cls-1" d="M1696.67,1326.58l-2.81-19.24a22.5,22.5,0,0,0-14.3-17.79l-.94-.35h0a22.49,22.49,0,0,0,15.85-18.88l2.2-18.5,2.68,19.09a22.47,22.47,0,0,0,14.61,18l.75.27-1.88.87a22.5,22.5,0,0,0-12.68,16.53Z"/>
      <path class="cls-1" d="M1464.92,1110.23l-2.8-19.23a22.49,22.49,0,0,0-14.31-17.79l-.93-.35h0a22.5,22.5,0,0,0,15.85-18.89l2.19-18.49,2.68,19.09a22.51,22.51,0,0,0,14.62,18l.75.27-1.88.87a22.46,22.46,0,0,0-12.68,16.53Z"/>
      <path class="cls-1" d="M1269.48,899.39l-2.81-19.24a22.48,22.48,0,0,0-14.3-17.78l-.93-.36h0a22.49,22.49,0,0,0,15.85-18.88l2.19-18.49,2.68,19.09a22.46,22.46,0,0,0,14.62,18l.74.27-1.87.87A22.49,22.49,0,0,0,1273,879.41Z"/>
      <path class="cls-1" d="M1037.74,683.05l-2.81-19.24a22.5,22.5,0,0,0-14.3-17.79l-.94-.35h0a22.47,22.47,0,0,0,15.85-18.88l2.2-18.5,2.68,19.09a22.48,22.48,0,0,0,14.62,18l.74.27-1.87.87a22.51,22.51,0,0,0-12.69,16.53Z"/>
      <path class="cls-1" d="M832.25,462.16l-2.81-19.24a22.5,22.5,0,0,0-14.3-17.79l-.94-.35h0a22.47,22.47,0,0,0,15.85-18.88l2.2-18.5,2.68,19.09a22.48,22.48,0,0,0,14.62,18l.74.27-1.87.87a22.51,22.51,0,0,0-12.69,16.53Z"/>
      <path class="cls-1" d="M600.5,245.81l-2.8-19.23a22.49,22.49,0,0,0-14.31-17.79l-.93-.35h0a22.5,22.5,0,0,0,15.85-18.88l2.19-18.5,2.68,19.09a22.51,22.51,0,0,0,14.62,18l.75.27-1.88.87A22.48,22.48,0,0,0,604,225.84Z"/>
      <path class="cls-1" d="M2165.37,1438.59l-2.81-19.24a22.48,22.48,0,0,0-14.3-17.78l-.93-.36h0a22.47,22.47,0,0,0,15.84-18.88l2.2-18.49,2.68,19.09a22.46,22.46,0,0,0,14.62,18l.74.27-1.87.88a22.49,22.49,0,0,0-12.69,16.52Z"/>
      <path class="cls-1" d="M1933.63,1222.25l-2.81-19.24a22.5,22.5,0,0,0-14.3-17.79l-.94-.35h0a22.49,22.49,0,0,0,15.85-18.88l2.2-18.5,2.67,19.09a22.5,22.5,0,0,0,14.62,18l.75.27-1.88.87a22.5,22.5,0,0,0-12.68,16.53Z"/>
      <path class="cls-1" d="M1738.18,1011.41l-2.8-19.24a22.49,22.49,0,0,0-14.31-17.79l-.93-.35h0A22.49,22.49,0,0,0,1736,955.15l2.19-18.5,2.68,19.09a22.5,22.5,0,0,0,14.62,18l.75.27-1.88.87a22.5,22.5,0,0,0-12.68,16.53Z"/>
      <path class="cls-1" d="M1506.44,795.06l-2.81-19.23a22.48,22.48,0,0,0-14.3-17.79l-.93-.35h0a22.48,22.48,0,0,0,15.84-18.88l2.2-18.5,2.68,19.09a22.49,22.49,0,0,0,14.62,18l.74.27-1.87.87a22.46,22.46,0,0,0-12.68,16.53Z"/>
      <path class="cls-1" d="M1301,574.17l-2.81-19.23a22.48,22.48,0,0,0-14.3-17.79l-.93-.35h0a22.48,22.48,0,0,0,15.84-18.88l2.2-18.5,2.68,19.09a22.49,22.49,0,0,0,14.62,18l.74.27-1.87.87a22.46,22.46,0,0,0-12.68,16.53Z"/>
      <path class="cls-1" d="M1069.21,357.83l-2.81-19.24a22.47,22.47,0,0,0-14.3-17.78l-.94-.36h0A22.47,22.47,0,0,0,1067,301.57l2.2-18.5,2.68,19.09a22.47,22.47,0,0,0,14.61,18l.75.27-1.88.87a22.52,22.52,0,0,0-12.68,16.53Z"/>
      <path class="cls-1" d="M2212.25,1155.52l-2.81-19.24a22.5,22.5,0,0,0-14.3-17.79l-.94-.35h0a22.47,22.47,0,0,0,15.85-18.88l2.2-18.5,2.68,19.09a22.48,22.48,0,0,0,14.61,18l.75.27-1.88.87a22.52,22.52,0,0,0-12.68,16.53Z"/>
      <path class="cls-1" d="M1980.5,939.17l-2.8-19.23a22.49,22.49,0,0,0-14.31-17.79l-.93-.35h0a22.5,22.5,0,0,0,15.85-18.88l2.19-18.5,2.68,19.09a22.51,22.51,0,0,0,14.62,18l.75.27-1.88.87A22.48,22.48,0,0,0,1984,919.2Z"/>
      <path class="cls-1" d="M1785.06,728.33l-2.8-19.24A22.51,22.51,0,0,0,1768,691.31L1767,691h0a22.48,22.48,0,0,0,15.85-18.88l2.19-18.49,2.68,19.09a22.51,22.51,0,0,0,14.62,18l.75.26-1.88.88a22.46,22.46,0,0,0-12.68,16.53Z"/>
      <path class="cls-1" d="M1553.32,512l-2.81-19.24a22.48,22.48,0,0,0-14.3-17.79l-.93-.35h0a22.48,22.48,0,0,0,15.84-18.88l2.2-18.5,2.68,19.09a22.48,22.48,0,0,0,14.62,18l.74.27-1.87.87A22.51,22.51,0,0,0,1556.8,492Z"/>
      <path class="cls-1" d="M1347.83,291.1,1345,271.86a22.48,22.48,0,0,0-14.3-17.79l-.93-.35h0a22.48,22.48,0,0,0,15.84-18.88l2.2-18.5,2.68,19.09a22.48,22.48,0,0,0,14.62,18l.74.27-1.87.87a22.51,22.51,0,0,0-12.69,16.53Z"/>
      <path class="cls-1" d="M1116.09,74.75l-2.81-19.23A22.5,22.5,0,0,0,1099,37.73l-.94-.35h0a22.5,22.5,0,0,0,15.85-18.88l2.2-18.5,2.67,19.09a22.51,22.51,0,0,0,14.62,18l.75.27-1.88.87a22.48,22.48,0,0,0-12.68,16.53Z"/>
      <path class="cls-1" d="M1675,1579.23l-2.81-19.24a22.5,22.5,0,0,0-14.3-17.79l-.94-.35h0a22.49,22.49,0,0,0,15.85-18.88l2.2-18.5,2.68,19.09a22.47,22.47,0,0,0,14.61,18l.75.27-1.88.87a22.5,22.5,0,0,0-12.68,16.53Z"/>
      <path class="cls-1" d="M1443.2,1362.88l-2.8-19.23a22.49,22.49,0,0,0-14.31-17.79l-.93-.35h0a22.5,22.5,0,0,0,15.85-18.88l2.19-18.5,2.68,19.09a22.51,22.51,0,0,0,14.62,18l.75.27-1.88.87a22.46,22.46,0,0,0-12.68,16.53Z"/>
      <path class="cls-1" d="M1247.76,1152l-2.81-19.23a22.48,22.48,0,0,0-14.3-17.79l-.93-.35h0a22.48,22.48,0,0,0,15.84-18.88l2.2-18.5,2.68,19.09a22.49,22.49,0,0,0,14.62,18l.74.27-1.87.87a22.46,22.46,0,0,0-12.68,16.53Z"/>
      <path class="cls-1" d="M1016,935.7l-2.81-19.24a22.5,22.5,0,0,0-14.3-17.79l-.94-.35h0a22.47,22.47,0,0,0,15.85-18.88l2.2-18.5L1018.7,880a22.48,22.48,0,0,0,14.62,18l.74.27-1.87.87a22.51,22.51,0,0,0-12.69,16.53Z"/>
      <path class="cls-1" d="M810.53,714.81l-2.81-19.24a22.5,22.5,0,0,0-14.3-17.79l-.94-.35h0a22.47,22.47,0,0,0,15.85-18.88l2.2-18.5,2.68,19.09a22.48,22.48,0,0,0,14.61,18l.75.27-1.88.87A22.52,22.52,0,0,0,814,694.83Z"/>
      <path class="cls-1" d="M578.78,498.47,576,479.23a22.49,22.49,0,0,0-14.31-17.79l-.93-.35h0a22.5,22.5,0,0,0,15.85-18.88l2.19-18.5,2.68,19.09a22.51,22.51,0,0,0,14.62,18l.75.27L595,462a22.48,22.48,0,0,0-12.68,16.53Z"/>
      <path class="cls-1" d="M1379.25,1600.86l-2.81-19.23a22.48,22.48,0,0,0-14.3-17.79l-.93-.35h0a22.48,22.48,0,0,0,15.84-18.88l2.2-18.5,2.68,19.09a22.49,22.49,0,0,0,14.62,18l.74.27-1.87.87a22.46,22.46,0,0,0-12.68,16.53Z"/>
      <path class="cls-1" d="M1147.51,1384.52l-2.81-19.24a22.48,22.48,0,0,0-14.3-17.78l-.94-.36h0a22.47,22.47,0,0,0,15.85-18.88l2.2-18.49,2.68,19.08a22.45,22.45,0,0,0,14.61,18l.75.27-1.88.87a22.52,22.52,0,0,0-12.68,16.53Z"/>
      <path class="cls-1" d="M952.06,1173.68l-2.8-19.24a22.5,22.5,0,0,0-14.3-17.79l-.94-.35h0a22.49,22.49,0,0,0,15.85-18.88l2.19-18.5,2.68,19.09a22.5,22.5,0,0,0,14.62,18l.75.27-1.88.87a22.5,22.5,0,0,0-12.68,16.53Z"/>
      <path class="cls-1" d="M720.32,957.34l-2.81-19.24a22.48,22.48,0,0,0-14.3-17.79l-.93-.35h0a22.5,22.5,0,0,0,15.85-18.88l2.19-18.5L723,901.67a22.49,22.49,0,0,0,14.62,18l.74.27-1.87.87a22.46,22.46,0,0,0-12.68,16.53Z"/>
      <path class="cls-1" d="M514.83,736.45,512,717.21a22.48,22.48,0,0,0-14.3-17.79l-.93-.35h0a22.5,22.5,0,0,0,15.85-18.88l2.19-18.5,2.68,19.09a22.49,22.49,0,0,0,14.62,18l.74.27-1.87.87a22.46,22.46,0,0,0-12.68,16.53Z"/>
      <path class="cls-1" d="M283.09,520.1l-2.81-19.24A22.5,22.5,0,0,0,266,483.08l-.94-.36h0a22.46,22.46,0,0,0,15.85-18.88l2.2-18.49,2.68,19.09a22.46,22.46,0,0,0,14.62,18l.74.27-1.87.88a22.49,22.49,0,0,0-12.69,16.52Z"/>
      <path class="cls-1" d="M1114.2,1631.52l-2.8-19.24a22.5,22.5,0,0,0-14.3-17.79l-.94-.35h0a22.5,22.5,0,0,0,15.85-18.88l2.19-18.5,2.68,19.09a22.51,22.51,0,0,0,14.62,18l.75.27-1.88.87a22.48,22.48,0,0,0-12.68,16.53Z"/>
      <path class="cls-1" d="M882.46,1415.17l-2.81-19.24a22.48,22.48,0,0,0-14.3-17.78l-.93-.36h0a22.49,22.49,0,0,0,15.85-18.88l2.19-18.49,2.68,19.09a22.46,22.46,0,0,0,14.62,18l.74.27-1.87.88A22.46,22.46,0,0,0,886,1395.19Z"/>
      <path class="cls-1" d="M687,1204.33l-2.81-19.24a22.48,22.48,0,0,0-14.3-17.78L669,1167h0a22.46,22.46,0,0,0,15.84-18.88l2.2-18.49,2.68,19.08a22.46,22.46,0,0,0,14.62,18l.74.27-1.87.87a22.49,22.49,0,0,0-12.68,16.53Z"/>
      <path class="cls-1" d="M455.28,988l-2.81-19.24A22.5,22.5,0,0,0,438.17,951l-.94-.35h0a22.47,22.47,0,0,0,15.85-18.88l2.2-18.5L458,932.32a22.47,22.47,0,0,0,14.61,18l.75.27-1.88.87A22.52,22.52,0,0,0,458.76,968Z"/>
      <path class="cls-1" d="M249.79,767.1,247,747.86a22.5,22.5,0,0,0-14.3-17.79l-.94-.35h0a22.47,22.47,0,0,0,15.85-18.88l2.2-18.5,2.68,19.09a22.47,22.47,0,0,0,14.61,18l.75.27-1.88.87a22.52,22.52,0,0,0-12.68,16.53Z"/>
      <path class="cls-1" d="M18,550.75l-2.8-19.23A22.49,22.49,0,0,0,.93,513.73L0,513.38H0A22.5,22.5,0,0,0,15.85,494.5L18,476l2.68,19.09a22.51,22.51,0,0,0,14.62,18l.75.27-1.88.87a22.46,22.46,0,0,0-12.68,16.53Z"/>
    </g>
  </g>
</svg>
