<svg xmlns="http://www.w3.org/2000/svg" width="2279.5" height="2178.27" viewBox="0 0 2279.5 2178.27">
  <defs>
    <style>
      .cls-1, .cls-2 {
        fill: #0ee2ac;
      }

      .cls-1 {
        opacity: 0.6;
      }

      .cls-2 {
        opacity: 0.8;
      }
    </style>
  </defs>
  <g id="Layer_2" data-name="Layer 2">
    <g id="Layer_5" data-name="Layer 5">
      <circle class="cls-1" cx="1547.43" cy="1803.23" r="9.97"/>
      <circle class="cls-1" cx="1443.8" cy="1676.08" r="9.97"/>
      <circle class="cls-1" cx="1385.47" cy="1803.32" r="9.97"/>
      <circle class="cls-1" cx="1731.42" cy="1575.95" r="9.97"/>
      <circle class="cls-1" cx="1571.27" cy="1540.45" r="9.97"/>
      <circle class="cls-1" cx="1604.4" cy="1676.45" r="9.97"/>
      <circle class="cls-1" cx="1420.26" cy="1506.96" r="9.97"/>
      <circle class="cls-1" cx="1316.62" cy="1379.82" r="9.97"/>
      <circle class="cls-1" cx="1258.29" cy="1507.06" r="9.97"/>
      <circle class="cls-1" cx="1604.24" cy="1279.68" r="9.97"/>
      <circle class="cls-1" cx="1444.09" cy="1244.19" r="9.97"/>
      <circle class="cls-1" cx="1477.23" cy="1380.18" r="9.97"/>
      <circle class="cls-1" cx="1273.97" cy="2168.21" r="9.97"/>
      <circle class="cls-1" cx="1170.33" cy="2041.06" r="9.97"/>
      <circle class="cls-1" cx="1112" cy="2168.3" r="9.97"/>
      <circle class="cls-1" cx="1457.95" cy="1940.93" r="9.97"/>
      <circle class="cls-1" cx="1297.8" cy="1905.44" r="9.97"/>
      <circle class="cls-1" cx="1330.94" cy="2041.43" r="9.97"/>
      <circle class="cls-1" cx="1146.79" cy="1871.94" r="9.97"/>
      <circle class="cls-1" cx="1043.16" cy="1744.8" r="9.97"/>
      <circle class="cls-1" cx="984.82" cy="1872.04" r="9.97"/>
      <circle class="cls-1" cx="1330.77" cy="1644.66" r="9.97"/>
      <circle class="cls-1" cx="1170.63" cy="1609.17" r="9.97"/>
      <circle class="cls-1" cx="1203.76" cy="1745.16" r="9.97"/>
      <circle class="cls-1" cx="1108.56" cy="1468.45" r="9.97"/>
      <circle class="cls-1" cx="1004.93" cy="1341.3" r="9.97"/>
      <circle class="cls-1" cx="946.6" cy="1468.54" r="9.97"/>
      <circle class="cls-1" cx="1292.54" cy="1241.17" r="9.97"/>
      <circle class="cls-1" cx="1132.4" cy="1205.68" r="9.97"/>
      <circle class="cls-1" cx="1165.53" cy="1341.67" r="9.97"/>
      <circle class="cls-1" cx="981.38" cy="1172.19" r="9.97"/>
      <circle class="cls-1" cx="877.75" cy="1045.04" r="9.97"/>
      <circle class="cls-1" cx="819.42" cy="1172.28" r="9.97"/>
      <circle class="cls-1" cx="1165.37" cy="944.9" r="9.97"/>
      <circle class="cls-1" cx="1005.22" cy="909.41" r="9.97"/>
      <circle class="cls-1" cx="1038.35" cy="1045.41" r="9.97"/>
      <circle class="cls-1" cx="835.1" cy="1833.43" r="9.97"/>
      <circle class="cls-1" cx="731.46" cy="1706.29" r="9.97"/>
      <circle class="cls-1" cx="673.13" cy="1833.53" r="9.97"/>
      <circle class="cls-1" cx="1019.08" cy="1606.15" r="9.97"/>
      <circle class="cls-1" cx="858.93" cy="1570.66" r="9.97"/>
      <circle class="cls-1" cx="892.07" cy="1706.65" r="9.97"/>
      <circle class="cls-1" cx="707.92" cy="1537.17" r="9.97"/>
      <circle class="cls-1" cx="604.28" cy="1410.02" r="9.97"/>
      <circle class="cls-1" cx="545.95" cy="1537.26" r="9.97"/>
      <circle class="cls-1" cx="891.9" cy="1309.88" r="9.97"/>
      <circle class="cls-1" cx="731.76" cy="1274.39" r="9.97"/>
      <circle class="cls-1" cx="764.89" cy="1410.39" r="9.97"/>
      <circle class="cls-1" cx="572.57" cy="1274.18" r="9.97"/>
      <circle class="cls-1" cx="468.94" cy="1147.03" r="9.97"/>
      <circle class="cls-1" cx="410.61" cy="1274.27" r="9.97"/>
      <circle class="cls-1" cx="756.56" cy="1046.89" r="9.97"/>
      <circle class="cls-1" cx="596.41" cy="1011.4" r="9.97"/>
      <circle class="cls-1" cx="629.54" cy="1147.4" r="9.97"/>
      <circle class="cls-1" cx="445.4" cy="977.91" r="9.97"/>
      <circle class="cls-1" cx="341.76" cy="850.76" r="9.97"/>
      <circle class="cls-1" cx="283.43" cy="978" r="9.97"/>
      <circle class="cls-1" cx="629.38" cy="750.63" r="9.97"/>
      <circle class="cls-1" cx="469.23" cy="715.13" r="9.97"/>
      <circle class="cls-1" cx="502.37" cy="851.13" r="9.97"/>
      <circle class="cls-1" cx="299.11" cy="1639.16" r="9.97"/>
      <circle class="cls-1" cx="195.47" cy="1512.01" r="9.97"/>
      <circle class="cls-1" cx="137.14" cy="1639.25" r="9.97"/>
      <circle class="cls-1" cx="483.09" cy="1411.88" r="9.97"/>
      <circle class="cls-1" cx="322.94" cy="1376.38" r="9.97"/>
      <circle class="cls-1" cx="356.08" cy="1512.38" r="9.97"/>
      <circle class="cls-1" cx="171.93" cy="1342.89" r="9.97"/>
      <circle class="cls-1" cx="68.3" cy="1215.74" r="9.97"/>
      <circle class="cls-1" cx="9.97" cy="1342.98" r="9.97"/>
      <circle class="cls-1" cx="355.91" cy="1115.61" r="9.97"/>
      <circle class="cls-1" cx="195.77" cy="1080.12" r="9.97"/>
      <circle class="cls-1" cx="228.9" cy="1216.11" r="9.97"/>
      <circle class="cls-1" cx="2085.56" cy="1061.13" r="9.97"/>
      <circle class="cls-1" cx="1981.92" cy="933.98" r="9.97"/>
      <circle class="cls-1" cx="1923.59" cy="1061.22" r="9.97"/>
      <circle class="cls-1" cx="2269.54" cy="833.85" r="9.97"/>
      <circle class="cls-1" cx="2109.39" cy="798.35" r="9.97"/>
      <circle class="cls-1" cx="2142.53" cy="934.35" r="9.97"/>
      <circle class="cls-1" cx="1958.38" cy="764.86" r="9.97"/>
      <circle class="cls-1" cx="1854.74" cy="637.71" r="9.97"/>
      <circle class="cls-1" cx="1796.41" cy="764.95" r="9.97"/>
      <circle class="cls-1" cx="2142.36" cy="537.58" r="9.97"/>
      <circle class="cls-1" cx="1982.21" cy="502.09" r="9.97"/>
      <circle class="cls-1" cx="2015.35" cy="638.08" r="9.97"/>
      <circle class="cls-1" cx="1812.09" cy="1426.11" r="9.97"/>
      <circle class="cls-1" cx="1708.46" cy="1298.96" r="9.97"/>
      <circle class="cls-1" cx="1650.12" cy="1426.2" r="9.97"/>
      <circle class="cls-1" cx="1996.07" cy="1198.83" r="9.97"/>
      <circle class="cls-1" cx="1835.93" cy="1163.34" r="9.97"/>
      <circle class="cls-1" cx="1869.06" cy="1299.33" r="9.97"/>
      <circle class="cls-1" cx="1684.91" cy="1129.84" r="9.97"/>
      <circle class="cls-1" cx="1581.28" cy="1002.7" r="9.97"/>
      <circle class="cls-1" cx="1522.95" cy="1129.94" r="9.97"/>
      <circle class="cls-1" cx="1868.9" cy="902.56" r="9.97"/>
      <circle class="cls-1" cx="1708.75" cy="867.07" r="9.97"/>
      <circle class="cls-1" cx="1741.88" cy="1003.06" r="9.97"/>
      <circle class="cls-1" cx="1646.68" cy="726.35" r="9.97"/>
      <circle class="cls-1" cx="1543.05" cy="599.2" r="9.97"/>
      <circle class="cls-1" cx="1484.72" cy="726.44" r="9.97"/>
      <circle class="cls-1" cx="1830.67" cy="499.07" r="9.97"/>
      <circle class="cls-1" cx="1670.52" cy="463.58" r="9.97"/>
      <circle class="cls-1" cx="1703.65" cy="599.57" r="9.97"/>
      <circle class="cls-1" cx="1519.51" cy="430.09" r="9.97"/>
      <circle class="cls-1" cx="1415.87" cy="302.94" r="9.97"/>
      <circle class="cls-1" cx="1357.54" cy="430.18" r="9.97"/>
      <circle class="cls-1" cx="1703.49" cy="202.8" r="9.97"/>
      <circle class="cls-1" cx="1543.34" cy="167.31" r="9.97"/>
      <circle class="cls-1" cx="1576.48" cy="303.3" r="9.97"/>
      <circle class="cls-1" cx="1373.22" cy="1091.33" r="9.97"/>
      <circle class="cls-1" cx="1269.58" cy="964.19" r="9.97"/>
      <circle class="cls-1" cx="1211.25" cy="1091.43" r="9.97"/>
      <circle class="cls-1" cx="1557.2" cy="864.05" r="9.97"/>
      <circle class="cls-1" cx="1397.06" cy="828.56" r="9.97"/>
      <circle class="cls-1" cx="1430.19" cy="964.55" r="9.97"/>
      <circle class="cls-1" cx="1246.04" cy="795.07" r="9.97"/>
      <circle class="cls-1" cx="1142.41" cy="667.92" r="9.97"/>
      <circle class="cls-1" cx="1084.08" cy="795.16" r="9.97"/>
      <circle class="cls-1" cx="1430.02" cy="567.78" r="9.97"/>
      <circle class="cls-1" cx="1269.88" cy="532.29" r="9.97"/>
      <circle class="cls-1" cx="1303.01" cy="668.29" r="9.97"/>
      <circle class="cls-1" cx="1110.7" cy="532.08" r="9.97"/>
      <circle class="cls-1" cx="1007.06" cy="404.93" r="9.97"/>
      <circle class="cls-1" cx="948.73" cy="532.17" r="9.97"/>
      <circle class="cls-1" cx="1294.68" cy="304.79" r="9.97"/>
      <circle class="cls-1" cx="1134.53" cy="269.3" r="9.97"/>
      <circle class="cls-1" cx="1167.67" cy="405.3" r="9.97"/>
      <circle class="cls-1" cx="983.52" cy="235.81" r="9.97"/>
      <circle class="cls-2" cx="879.88" cy="145.59" r="9.97"/>
      <circle class="cls-1" cx="821.55" cy="235.9" r="9.97"/>
      <circle class="cls-2" cx="1167.5" cy="45.46" r="9.97"/>
      <circle class="cls-2" cx="1007.35" cy="9.97" r="9.97"/>
      <circle class="cls-2" cx="1040.49" cy="145.96" r="9.97"/>
      <circle class="cls-1" cx="837.23" cy="897.06" r="9.97"/>
      <circle class="cls-1" cx="733.6" cy="769.91" r="9.97"/>
      <circle class="cls-1" cx="675.27" cy="897.15" r="9.97"/>
      <circle class="cls-1" cx="1021.21" cy="669.78" r="9.97"/>
      <circle class="cls-1" cx="861.07" cy="634.28" r="9.97"/>
      <circle class="cls-1" cx="894.2" cy="770.28" r="9.97"/>
      <circle class="cls-1" cx="710.05" cy="600.79" r="9.97"/>
      <circle class="cls-1" cx="606.42" cy="473.64" r="9.97"/>
      <circle class="cls-1" cx="548.09" cy="600.88" r="9.97"/>
      <circle class="cls-1" cx="894.04" cy="373.51" r="9.97"/>
      <circle class="cls-1" cx="733.89" cy="338.02" r="9.97"/>
      <circle class="cls-1" cx="767.02" cy="474.01" r="9.97"/>
    </g>
  </g>
</svg>
