<svg xmlns="http://www.w3.org/2000/svg" width="1092.44" height="1455.63" viewBox="0 0 1092.44 1455.63">
  <defs>
    <style>
      .cls-1 {
        fill: #0ee2ac;
        opacity: 0.8;
      }
    </style>
  </defs>
  <g id="Layer_2" data-name="Layer 2">
    <g id="Layer_4" data-name="Layer 4">
      <circle class="cls-1" cx="1074.79" cy="967.42" r="6.9"/>
      <circle class="cls-1" cx="965.02" cy="938.27" r="6.9"/>
      <circle class="cls-1" cx="984.04" cy="1033.3" r="6.9"/>
      <circle class="cls-1" cx="1085.53" cy="765.24" r="6.9"/>
      <circle class="cls-1" cx="981.34" cy="810.44" r="6.9"/>
      <circle class="cls-1" cx="1055.19" cy="873.2" r="6.9"/>
      <circle class="cls-1" cx="883.08" cy="853.04" r="6.9"/>
      <circle class="cls-1" cx="773.31" cy="823.9" r="6.9"/>
      <circle class="cls-1" cx="792.33" cy="918.93" r="6.9"/>
      <circle class="cls-1" cx="893.83" cy="650.86" r="6.9"/>
      <circle class="cls-1" cx="789.63" cy="696.06" r="6.9"/>
      <circle class="cls-1" cx="863.48" cy="758.82" r="6.9"/>
      <circle class="cls-1" cx="1069.85" cy="1283.15" r="6.9"/>
      <circle class="cls-1" cx="960.08" cy="1254.01" r="6.9"/>
      <circle class="cls-1" cx="979.1" cy="1349.04" r="6.9"/>
      <circle class="cls-1" cx="1080.6" cy="1080.97" r="6.9"/>
      <circle class="cls-1" cx="976.41" cy="1126.17" r="6.9"/>
      <circle class="cls-1" cx="1050.25" cy="1188.93" r="6.9"/>
      <circle class="cls-1" cx="878.15" cy="1168.78" r="6.9"/>
      <circle class="cls-1" cx="768.37" cy="1139.63" r="6.9"/>
      <circle class="cls-1" cx="787.4" cy="1234.66" r="6.9"/>
      <circle class="cls-1" cx="888.89" cy="966.6" r="6.9"/>
      <circle class="cls-1" cx="784.7" cy="1011.8" r="6.9"/>
      <circle class="cls-1" cx="858.55" cy="1074.56" r="6.9"/>
      <circle class="cls-1" cx="692.71" cy="958.15" r="6.9"/>
      <circle class="cls-1" cx="582.94" cy="929" r="6.9"/>
      <circle class="cls-1" cx="601.97" cy="1024.03" r="6.9"/>
      <circle class="cls-1" cx="703.46" cy="755.97" r="6.9"/>
      <circle class="cls-1" cx="599.27" cy="801.17" r="6.9"/>
      <circle class="cls-1" cx="673.12" cy="863.93" r="6.9"/>
      <circle class="cls-1" cx="501.01" cy="843.77" r="6.9"/>
      <circle class="cls-1" cx="391.24" cy="814.63" r="6.9"/>
      <circle class="cls-1" cx="410.26" cy="909.66" r="6.9"/>
      <circle class="cls-1" cx="511.75" cy="641.59" r="6.9"/>
      <circle class="cls-1" cx="407.56" cy="686.79" r="6.9"/>
      <circle class="cls-1" cx="481.41" cy="749.55" r="6.9"/>
      <circle class="cls-1" cx="687.78" cy="1273.88" r="6.9"/>
      <circle class="cls-1" cx="578.01" cy="1244.74" r="6.9"/>
      <circle class="cls-1" cx="597.03" cy="1339.77" r="6.9"/>
      <circle class="cls-1" cx="698.53" cy="1071.7" r="6.9"/>
      <circle class="cls-1" cx="594.33" cy="1116.9" r="6.9"/>
      <circle class="cls-1" cx="668.18" cy="1179.66" r="6.9"/>
      <circle class="cls-1" cx="496.07" cy="1159.51" r="6.9"/>
      <circle class="cls-1" cx="386.3" cy="1130.36" r="6.9"/>
      <circle class="cls-1" cx="405.32" cy="1225.39" r="6.9"/>
      <circle class="cls-1" cx="506.82" cy="957.33" r="6.9"/>
      <circle class="cls-1" cx="402.63" cy="1002.53" r="6.9"/>
      <circle class="cls-1" cx="476.47" cy="1065.29" r="6.9"/>
      <circle class="cls-1" cx="313.31" cy="1067.11" r="6.9"/>
      <circle class="cls-1" cx="203.54" cy="1037.96" r="6.9"/>
      <circle class="cls-1" cx="222.56" cy="1132.99" r="6.9"/>
      <circle class="cls-1" cx="324.06" cy="864.93" r="6.9"/>
      <circle class="cls-1" cx="219.87" cy="910.13" r="6.9"/>
      <circle class="cls-1" cx="293.72" cy="972.89" r="6.9"/>
      <circle class="cls-1" cx="121.61" cy="952.73" r="6.9"/>
      <circle class="cls-1" cx="11.84" cy="923.59" r="6.9"/>
      <circle class="cls-1" cx="30.86" cy="1018.62" r="6.9"/>
      <circle class="cls-1" cx="132.35" cy="750.55" r="6.9"/>
      <circle class="cls-1" cx="28.16" cy="795.75" r="6.9"/>
      <circle class="cls-1" cx="102.01" cy="858.51" r="6.9"/>
      <circle class="cls-1" cx="308.38" cy="1382.84" r="6.9"/>
      <circle class="cls-1" cx="198.61" cy="1353.7" r="6.9"/>
      <circle class="cls-1" cx="217.63" cy="1448.73" r="6.9"/>
      <circle class="cls-1" cx="319.12" cy="1180.66" r="6.9"/>
      <circle class="cls-1" cx="214.93" cy="1225.86" r="6.9"/>
      <circle class="cls-1" cx="288.78" cy="1288.62" r="6.9"/>
      <circle class="cls-1" cx="116.67" cy="1268.47" r="6.9"/>
      <circle class="cls-1" cx="6.9" cy="1239.32" r="6.9"/>
      <circle class="cls-1" cx="25.92" cy="1334.35" r="6.9"/>
      <circle class="cls-1" cx="127.42" cy="1066.29" r="6.9"/>
      <circle class="cls-1" cx="23.22" cy="1111.49" r="6.9"/>
      <circle class="cls-1" cx="97.07" cy="1174.25" r="6.9"/>
      <circle class="cls-1" cx="1074.79" cy="332.72" r="6.9"/>
      <circle class="cls-1" cx="965.02" cy="303.58" r="6.9"/>
      <circle class="cls-1" cx="984.04" cy="398.61" r="6.9"/>
      <circle class="cls-1" cx="1085.53" cy="130.54" r="6.9"/>
      <circle class="cls-1" cx="981.34" cy="175.74" r="6.9"/>
      <circle class="cls-1" cx="1055.19" cy="238.5" r="6.9"/>
      <circle class="cls-1" cx="883.08" cy="218.35" r="6.9"/>
      <circle class="cls-1" cx="773.31" cy="189.2" r="6.9"/>
      <circle class="cls-1" cx="792.33" cy="284.23" r="6.9"/>
      <circle class="cls-1" cx="893.83" cy="16.17" r="6.9"/>
      <circle class="cls-1" cx="789.63" cy="61.37" r="6.9"/>
      <circle class="cls-1" cx="863.48" cy="124.13" r="6.9"/>
      <circle class="cls-1" cx="1069.85" cy="648.46" r="6.9"/>
      <circle class="cls-1" cx="960.08" cy="619.31" r="6.9"/>
      <circle class="cls-1" cx="979.1" cy="714.34" r="6.9"/>
      <circle class="cls-1" cx="1080.6" cy="446.28" r="6.9"/>
      <circle class="cls-1" cx="976.41" cy="491.48" r="6.9"/>
      <circle class="cls-1" cx="1050.25" cy="554.24" r="6.9"/>
      <circle class="cls-1" cx="878.15" cy="534.09" r="6.9"/>
      <circle class="cls-1" cx="768.37" cy="504.94" r="6.9"/>
      <circle class="cls-1" cx="787.4" cy="599.97" r="6.9"/>
      <circle class="cls-1" cx="888.89" cy="331.91" r="6.9"/>
      <circle class="cls-1" cx="784.7" cy="377.1" r="6.9"/>
      <circle class="cls-1" cx="858.55" cy="439.87" r="6.9"/>
      <circle class="cls-1" cx="692.71" cy="323.46" r="6.9"/>
      <circle class="cls-1" cx="582.94" cy="294.31" r="6.9"/>
      <circle class="cls-1" cx="601.97" cy="389.34" r="6.9"/>
      <circle class="cls-1" cx="703.46" cy="121.28" r="6.9"/>
      <circle class="cls-1" cx="599.27" cy="166.47" r="6.9"/>
      <circle class="cls-1" cx="673.12" cy="229.24" r="6.9"/>
      <circle class="cls-1" cx="501.01" cy="209.08" r="6.9"/>
      <circle class="cls-1" cx="391.24" cy="179.93" r="6.9"/>
      <circle class="cls-1" cx="410.26" cy="274.97" r="6.9"/>
      <circle class="cls-1" cx="511.75" cy="6.9" r="6.9"/>
      <circle class="cls-1" cx="407.56" cy="52.1" r="6.9"/>
      <circle class="cls-1" cx="481.41" cy="114.86" r="6.9"/>
      <circle class="cls-1" cx="687.78" cy="639.19" r="6.9"/>
      <circle class="cls-1" cx="578.01" cy="610.04" r="6.9"/>
      <circle class="cls-1" cx="597.03" cy="705.07" r="6.9"/>
      <circle class="cls-1" cx="698.53" cy="437.01" r="6.9"/>
      <circle class="cls-1" cx="594.33" cy="482.21" r="6.9"/>
      <circle class="cls-1" cx="668.18" cy="544.97" r="6.9"/>
      <circle class="cls-1" cx="496.07" cy="524.82" r="6.9"/>
      <circle class="cls-1" cx="386.3" cy="495.67" r="6.9"/>
      <circle class="cls-1" cx="405.32" cy="590.7" r="6.9"/>
      <circle class="cls-1" cx="506.82" cy="322.64" r="6.9"/>
      <circle class="cls-1" cx="402.63" cy="367.83" r="6.9"/>
      <circle class="cls-1" cx="476.47" cy="430.6" r="6.9"/>
      <circle class="cls-1" cx="313.31" cy="432.42" r="6.9"/>
      <circle class="cls-1" cx="203.54" cy="403.27" r="6.9"/>
      <circle class="cls-1" cx="222.56" cy="498.3" r="6.9"/>
      <circle class="cls-1" cx="324.06" cy="230.24" r="6.9"/>
      <circle class="cls-1" cx="219.87" cy="275.43" r="6.9"/>
      <circle class="cls-1" cx="293.72" cy="338.2" r="6.9"/>
      <circle class="cls-1" cx="121.61" cy="318.04" r="6.9"/>
      <circle class="cls-1" cx="11.84" cy="288.89" r="6.9"/>
      <circle class="cls-1" cx="30.86" cy="383.93" r="6.9"/>
      <circle class="cls-1" cx="132.35" cy="115.86" r="6.9"/>
      <circle class="cls-1" cx="28.16" cy="161.06" r="6.9"/>
      <circle class="cls-1" cx="102.01" cy="223.82" r="6.9"/>
      <circle class="cls-1" cx="308.38" cy="748.15" r="6.9"/>
      <circle class="cls-1" cx="198.61" cy="719" r="6.9"/>
      <circle class="cls-1" cx="217.63" cy="814.03" r="6.9"/>
      <circle class="cls-1" cx="319.12" cy="545.97" r="6.9"/>
      <circle class="cls-1" cx="214.93" cy="591.17" r="6.9"/>
      <circle class="cls-1" cx="288.78" cy="653.93" r="6.9"/>
      <circle class="cls-1" cx="116.67" cy="633.78" r="6.9"/>
      <circle class="cls-1" cx="6.9" cy="604.63" r="6.9"/>
      <circle class="cls-1" cx="25.92" cy="699.66" r="6.9"/>
      <circle class="cls-1" cx="127.42" cy="431.6" r="6.9"/>
      <circle class="cls-1" cx="23.22" cy="476.79" r="6.9"/>
      <circle class="cls-1" cx="97.07" cy="539.56" r="6.9"/>
    </g>
  </g>
</svg>
